<?xml version="1.0" encoding="UTF-8"?>
<svg id="Layer_1" data-name="Layer 1" xmlns="http://www.w3.org/2000/svg" viewBox="0 0 612 216.71">
  <defs>
    <style>
      .cls-1 {
        fill: #010101;
      }

      .cls-2 {
        fill: #ffe600;
      }

      .cls-3 {
        fill: #f6e21a;
      }

      .cls-4 {
        stroke-width: 2.24px;
      }

      .cls-4, .cls-5, .cls-6 {
        stroke: #231f20;
        stroke-miterlimit: 10;
      }

      .cls-4, .cls-6 {
        fill: none;
      }

      .cls-5 {
        fill: #f6e30e;
      }

      .cls-5, .cls-6 {
        stroke-width: 2.99px;
      }
    </style>
  </defs>
  <g>
    <path class="cls-2" d="M151.46,112.5c0,6.19,1.74,10.04,6.34,10.65.37.05.63.38.63.75v7.6c0,.43-.37.79-.8.76-11.17-.71-19.06-8.17-19.06-19.89v-26.9c0-.42.34-.76.76-.76h11.38c.42,0,.76.34.76.76v27.03ZM180.15,112.37c0,11.72-7.95,19.17-19.06,19.89-.43.03-.8-.33-.8-.76v-7.6c0-.37.27-.7.63-.75,4.53-.61,6.34-4.46,6.34-10.65v-27.03c0-.42.34-.76.76-.76h11.38c.42,0,.76.34.76.76v26.9Z"/>
    <path class="cls-2" d="M191.88,119.23c3.8,0,6.46,2.73,6.46,6.4,0,3.67-2.67,6.4-6.46,6.4-3.8,0-6.46-2.73-6.46-6.4,0-3.67,2.67-6.4,6.46-6.4Z"/>
    <path class="cls-2" d="M220.92,124.55v6.97c0,.43-.36.77-.78.75-10.29-.51-16.39-6.13-17.5-14.4-.06-.44.3-.84.75-.84h10.52c.35,0,.67.25.73.6.5,2.79,2.2,5.56,5.68,6.17.36.06.61.39.61.75ZM222.99,131.49v-6.97c0-.34.23-.66.57-.73,2.95-.61,4.99-3.44,4.99-5.83,0-2.53-1.7-3.42-5.04-4.22l-6.89-1.67c-7.78-1.87-13.26-6.45-13.26-13.78,0-8.75,6.93-13.84,16.17-14.48.43-.03.8.32.8.75v7.04c0,.35-.23.66-.57.73-2.6.51-4.02,2.78-4.02,4.83,0,2.6,2.15,4.45,5.41,5.25l6.67,1.67c8.23,2.07,13.12,5.15,13.12,12.95,0,8.92-8.44,14.46-17.13,15.21-.43.04-.81-.32-.81-.75ZM222.4,91.66v-7.08c0-.43.37-.78.8-.75,8.99.68,14.8,6.6,15.45,13.88.04.43-.32.8-.75.8h-10.01c-.36,0-.69-.26-.74-.62-.32-2.35-1.75-4.85-4.23-5.51-.32-.08-.52-.39-.52-.71Z"/>
    <path class="cls-2" d="M252.08,119.23c3.8,0,6.46,2.73,6.46,6.4,0,3.67-2.67,6.4-6.46,6.4s-6.46-2.73-6.46-6.4c0-3.67,2.67-6.4,6.46-6.4Z"/>
  </g>
  <path class="cls-2" d="M293.77,85.13v45.82c0,.23-.19.41-.41.41h-10.5c-.23,0-.41-.19-.41-.41v-45.82c0-.23.19-.41.41-.41h10.5c.23,0,.41.19.41.41ZM296.05,131.37c-.23,0-.41-.19-.41-.41v-9.12s.47,0,.47,0c11.66,0,18.26-4.67,18.26-13.8,0-9.13-6.6-13.8-18.26-13.8h-.47s0-9.12,0-9.12c0-.23.19-.41.41-.41h1.12c18.66,0,28.52,10.06,28.52,23.33,0,13.26-9.86,23.33-28.52,23.33h-1.12Z"/>
  <path class="cls-2" d="M339.64,130.73v-45.37c0-.35.29-.64.64-.64h10.05c.35,0,.64.29.64.64v45.37c0,.35-.29.64-.64.64h-10.05c-.35,0-.64-.29-.64-.64Z"/>
  <path class="cls-2" d="M424.25,84.72h10.13c.33,0,.6.27.6.6v45.45c0,.33-.27.6-.6.6h-10.13c-.33,0-.6-.27-.6-.6v-45.45c0-.33.27-.6.6-.6ZM436.85,93.98v-8.67c0-.33.27-.6.6-.6h18.2c.33,0,.6.27.6.6v8.67c0,.33-.27.6-.6.6h-18.2c-.33,0-.6-.27-.6-.6ZM436.85,112.04v-8.66c0-.33.27-.6.6-.6h17.6c.33,0,.6.27.6.6v8.66c0,.33-.27.6-.6.6h-17.6c-.33,0-.6-.27-.6-.6ZM436.85,130.77v-8.66c0-.33.27-.6.6-.6h18.46c.33,0,.6.27.6.6v8.66c0,.33-.27.6-.6.6h-18.46c-.33,0-.6-.27-.6-.6Z"/>
  <g>
    <path class="cls-2" d="M470.46,85.43v45.23c0,.39.32.71.71.71h9.9c.39,0,.71-.32.71-.71v-45.23c0-.39-.32-.71-.71-.71h-9.9c-.39,0-.71.32-.71.71Z"/>
    <path class="cls-2" d="M511.48,131.37h-14.14c-.22,0-.43-.1-.57-.27l-13.12-16.44.77-.04h-.77v-9c0-.4.33-.73.73-.73h9.41c4.2,0,7.5-1.39,7.46-5.93-.04-3.79-5.47-4.52-9.67-4.52h-7.2c-.4,0-.73-.33-.73-.73v-8.27c0-.4.33-.73.73-.73h8.8c9.86,0,19.4,4.52,19.4,14.25,0,7.85-4.84,13.28-12.01,15.03-.51.13-.71.74-.39,1.15l11.86,15.04c.38.48.04,1.18-.57,1.18Z"/>
  </g>
  <path class="cls-2" d="M545.01,124.55v6.97c0,.42-.36.77-.78.75-10.41-.51-16.58-6.13-17.69-14.4-.06-.44.3-.83.74-.83h10.65c.35,0,.66.24.73.59.5,2.79,2.22,5.57,5.74,6.18.36.06.61.39.61.76ZM547.1,131.5v-6.98c0-.34.23-.65.57-.72,2.99-.6,5.05-3.44,5.05-5.83,0-2.53-1.72-3.42-5.09-4.22l-6.96-1.67c-7.86-1.87-13.4-6.45-13.4-13.78,0-8.75,7.01-13.85,16.35-14.48.43-.03.79.32.79.75v7.05c0,.34-.23.66-.57.72-2.63.51-4.07,2.78-4.07,4.83,0,2.6,2.17,4.45,5.46,5.25l6.74,1.67c8.31,2.07,13.25,5.15,13.25,12.95,0,8.93-8.53,14.46-17.32,15.21-.43.04-.8-.31-.8-.75ZM546.51,91.66v-7.09c0-.43.36-.78.79-.74,9.1.68,14.97,6.6,15.62,13.89.04.43-.31.79-.74.79h-10.14c-.36,0-.68-.26-.73-.62-.33-2.35-1.77-4.86-4.28-5.52-.31-.08-.52-.38-.52-.71Z"/>
  <path class="cls-2" d="M388.83,131.67l-11.86.04-11.97-46.17c-.26-.55.14-1.18.74-1.18h10.23c.33,0,.63.2.76.5l12.1,46.81ZM396.47,131.72l-5.38-.04c-.09-.21-2.66-12.18-2.66-12.18l9.47-34.63c.13-.3.43-.49.75-.49h10.23c.6,0,1,.63.74,1.18l-13.16,46.17Z"/>
  <g>
    <g>
      <path class="cls-3" d="M80.4,143.53c-19.57,0-35.48-15.92-35.48-35.48s15.92-35.48,35.48-35.48,35.48,15.92,35.48,35.48-15.92,35.48-35.48,35.48Z"/>
      <path class="cls-1" d="M80.4,74.43c18.57,0,33.62,15.05,33.62,33.62s-15.05,33.62-33.62,33.62-33.62-15.05-33.62-33.62,15.05-33.62,33.62-33.62M80.4,70.69c-20.6,0-37.35,16.76-37.35,37.35s16.76,37.35,37.35,37.35,37.35-16.76,37.35-37.35-16.76-37.35-37.35-37.35h0Z"/>
    </g>
    <circle class="cls-5" cx="80.31" cy="108.14" r="26.89"/>
    <path class="cls-4" d="M59.89,89.72s6.6,5.7,20.37,5.7,20.51-5.7,20.51-5.7"/>
    <line class="cls-4" x1="80.31" y1="81.25" x2="80.31" y2="135.35"/>
    <path class="cls-4" d="M59.89,126.89s6.6-5.7,20.37-5.7,20.51,5.7,20.51,5.7"/>
    <ellipse class="cls-4" cx="80.4" cy="108.04" rx="13.11" ry="26.99"/>
    <path class="cls-6" d="M53.41,108.14s6.03,6.2,14.24,6.2,16.28-10.38,25.86-10.38,13.69,4.18,13.69,4.18"/>
  </g>
</svg>