<?xml version="1.0" encoding="UTF-8"?>
<svg id="Layer_1" data-name="Layer 1" xmlns="http://www.w3.org/2000/svg" viewBox="0 0 612 216.71">
  <defs>
    <style>
      .cls-1 {
        fill: #010101;
      }

      .cls-2 {
        fill: #fff;
      }

      .cls-3 {
        fill: #f6e21a;
      }

      .cls-4 {
        stroke-width: 2.25px;
      }

      .cls-4, .cls-5, .cls-6 {
        stroke: #231f20;
        stroke-miterlimit: 10;
      }

      .cls-4, .cls-6 {
        fill: none;
      }

      .cls-5 {
        fill: #f6e30e;
      }

      .cls-5, .cls-6 {
        stroke-width: 3px;
      }
    </style>
  </defs>
  <g>
    <path class="cls-2" d="M150.72,110.64c0,6.22,1.75,10.09,6.37,10.7.37.05.64.38.64.75v7.64c0,.44-.37.79-.8.76-11.23-.72-19.15-8.21-19.15-19.98v-27.03c0-.42.34-.76.76-.76h11.43c.42,0,.76.34.76.76v27.16ZM179.55,110.51c0,11.77-7.99,19.27-19.15,19.98-.44.03-.8-.33-.8-.76v-7.64c0-.37.27-.7.64-.75,4.55-.62,6.37-4.48,6.37-10.7v-27.16c0-.42.34-.76.76-.76h11.43c.42,0,.76.34.76.76v27.03Z"/>
    <path class="cls-2" d="M191.33,117.41c3.82,0,6.5,2.75,6.5,6.43,0,3.68-2.68,6.43-6.5,6.43-3.82,0-6.5-2.75-6.5-6.43,0-3.68,2.68-6.43,6.5-6.43Z"/>
    <path class="cls-2" d="M220.51,122.75v7c0,.43-.36.78-.79.76-10.34-.51-16.47-6.16-17.58-14.47-.06-.45.3-.84.75-.84h10.57c.36,0,.67.25.74.6.5,2.8,2.21,5.59,5.71,6.2.36.06.61.39.61.75ZM222.6,129.72v-7c0-.35.23-.66.57-.73,2.97-.61,5.01-3.46,5.01-5.85,0-2.54-1.71-3.43-5.06-4.24l-6.92-1.67c-7.82-1.88-13.33-6.48-13.33-13.84,0-8.79,6.97-13.91,16.25-14.55.43-.03.8.32.8.76v7.07c0,.35-.24.66-.58.73-2.61.51-4.04,2.79-4.04,4.85,0,2.61,2.16,4.47,5.44,5.27l6.7,1.67c8.26,2.08,13.18,5.18,13.18,13.01,0,8.96-8.48,14.53-17.21,15.28-.44.04-.81-.32-.81-.76ZM222,89.7v-7.12c0-.43.37-.79.8-.75,9.04.69,14.87,6.63,15.53,13.95.04.43-.32.8-.75.8h-10.06c-.37,0-.69-.26-.74-.63-.33-2.36-1.76-4.87-4.25-5.54-.32-.08-.53-.39-.53-.72Z"/>
    <path class="cls-2" d="M251.82,117.41c3.82,0,6.5,2.75,6.5,6.43,0,3.68-2.68,6.43-6.5,6.43s-6.5-2.75-6.5-6.43c0-3.68,2.68-6.43,6.5-6.43Z"/>
  </g>
  <path class="cls-2" d="M293.71,83.14v46.04c0,.23-.19.42-.42.42h-10.55c-.23,0-.42-.19-.42-.42v-46.04c0-.23.19-.42.42-.42h10.55c.23,0,.42.19.42.42ZM296,129.6c-.23,0-.42-.19-.42-.42v-9.16s.47,0,.47,0c11.72,0,18.35-4.69,18.35-13.86,0-9.17-6.63-13.86-18.35-13.86h-.47s0-9.16,0-9.16c0-.23.19-.42.42-.42h1.12c18.75,0,28.66,10.11,28.66,23.44,0,13.33-9.91,23.44-28.66,23.44h-1.12Z"/>
  <path class="cls-2" d="M339.8,128.96v-45.59c0-.35.29-.64.64-.64h10.1c.35,0,.64.29.64.64v45.59c0,.35-.29.64-.64.64h-10.1c-.35,0-.64-.29-.64-.64Z"/>
  <path class="cls-2" d="M424.82,82.73h10.18c.33,0,.6.27.6.6v45.67c0,.33-.27.6-.6.6h-10.18c-.33,0-.6-.27-.6-.6v-45.67c0-.33.27-.6.6-.6ZM437.48,92.03v-8.71c0-.33.27-.6.6-.6h18.28c.33,0,.6.27.6.6v8.71c0,.33-.27.6-.6.6h-18.28c-.33,0-.6-.27-.6-.6ZM437.48,110.18v-8.71c0-.33.27-.6.6-.6h17.68c.33,0,.6.27.6.6v8.71c0,.33-.27.6-.6.6h-17.68c-.33,0-.6-.27-.6-.6ZM437.48,129v-8.71c0-.33.27-.6.6-.6h18.55c.33,0,.6.27.6.6v8.71c0,.33-.27.6-.6.6h-18.55c-.33,0-.6-.27-.6-.6Z"/>
  <g>
    <path class="cls-2" d="M471.24,83.44v45.44c0,.4.32.72.72.72h9.95c.4,0,.72-.32.72-.72v-45.44c0-.4-.32-.72-.72-.72h-9.95c-.4,0-.72.32-.72.72Z"/>
    <path class="cls-2" d="M512.46,129.6h-14.2c-.22,0-.43-.1-.57-.28l-13.18-16.51.78-.04h-.78v-9.04c0-.4.33-.73.73-.73h9.46c4.22,0,7.54-1.4,7.5-5.95-.04-3.81-5.5-4.54-9.72-4.54h-7.24c-.4,0-.73-.33-.73-.73v-8.31c0-.4.33-.73.73-.73h8.85c9.91,0,19.5,4.54,19.5,14.32,0,7.89-4.86,13.34-12.07,15.11-.51.13-.72.74-.39,1.16l11.91,15.11c.38.48.04,1.19-.58,1.19Z"/>
  </g>
  <path class="cls-2" d="M546.15,122.75v7c0,.42-.36.77-.78.75-10.46-.51-16.66-6.16-17.78-14.47-.06-.44.3-.83.74-.83h10.71c.35,0,.67.24.73.59.5,2.8,2.23,5.6,5.76,6.2.36.06.61.39.61.76ZM548.26,129.73v-7.02c0-.34.23-.66.57-.72,3-.6,5.07-3.46,5.07-5.86,0-2.54-1.73-3.43-5.11-4.24l-6.99-1.67c-7.9-1.88-13.46-6.48-13.46-13.84,0-8.79,7.05-13.91,16.43-14.55.43-.03.79.32.79.75v7.09c0,.35-.23.66-.57.72-2.64.51-4.09,2.79-4.09,4.86,0,2.61,2.18,4.47,5.49,5.27l6.77,1.67c8.35,2.08,13.31,5.18,13.31,13.01,0,8.97-8.57,14.53-17.4,15.28-.43.04-.8-.32-.8-.75ZM547.66,89.7v-7.13c0-.43.37-.78.79-.75,9.14.68,15.04,6.63,15.7,13.96.04.43-.31.79-.74.79h-10.19c-.36,0-.68-.26-.73-.62-.33-2.36-1.78-4.88-4.3-5.55-.32-.08-.52-.38-.52-.71Z"/>
  <path class="cls-2" d="M389.22,129.91l-11.92.04-12.03-46.4c-.26-.55.14-1.18.75-1.18h10.28c.33,0,.63.2.76.5l12.16,47.03ZM396.9,129.95l-5.4-.04c-.09-.21-2.67-12.24-2.67-12.24l9.51-34.79c.13-.3.43-.5.76-.5h10.28c.61,0,1.01.63.75,1.18l-13.22,46.39Z"/>
  <g>
    <g>
      <path class="cls-3" d="M79.32,141.82c-19.66,0-35.65-15.99-35.65-35.65s16-35.65,35.65-35.65,35.65,15.99,35.65,35.65-15.99,35.65-35.65,35.65Z"/>
      <path class="cls-1" d="M79.32,72.39c18.65,0,33.78,15.12,33.78,33.78s-15.12,33.78-33.78,33.78-33.78-15.12-33.78-33.78,15.12-33.78,33.78-33.78M79.32,68.63c-20.69,0-37.53,16.84-37.53,37.53s16.84,37.53,37.53,37.53,37.53-16.84,37.53-37.53-16.84-37.53-37.53-37.53h0Z"/>
    </g>
    <circle class="cls-5" cx="79.23" cy="106.26" r="27.02"/>
    <path class="cls-4" d="M58.71,87.75s6.63,5.73,20.46,5.73,20.61-5.73,20.61-5.73"/>
    <line class="cls-4" x1="79.23" y1="79.24" x2="79.23" y2="133.6"/>
    <path class="cls-4" d="M58.71,125.1s6.63-5.73,20.46-5.73,20.61,5.73,20.61,5.73"/>
    <ellipse class="cls-4" cx="79.32" cy="106.16" rx="13.17" ry="27.12"/>
    <path class="cls-6" d="M52.2,106.26s6.06,6.23,14.3,6.23,16.35-10.43,25.98-10.43,13.76,4.2,13.76,4.2"/>
  </g>
</svg>